<svg id="Layer_1" data-name="Layer 1" xmlns="http://www.w3.org/2000/svg" viewBox="0 0 512 512"><defs><style>.cls-1{fill:#80d1f9;}.cls-2{fill:#fff;}.cls-3{fill:#f47878;}.cls-4{fill:#141f38;}</style></defs><title>browser-6-filled</title><path class="cls-1" d="M12.8,128V64A51.26,51.26,0,0,1,64,12.8H448A51.26,51.26,0,0,1,499.2,64v64Z"/><path class="cls-2" d="M64,499.2A51.26,51.26,0,0,1,12.8,448V128H499.2V448A51.26,51.26,0,0,1,448,499.2Z"/><rect class="cls-3" x="76.8" y="192" width="102.4" height="89.6" rx="19.2" ry="19.2"/><rect class="cls-3" x="76.8" y="345.6" width="102.4" height="89.6" rx="19.2" ry="19.2"/><path class="cls-4" d="M512,64A64,64,0,0,0,448,0H64A64,64,0,0,0,0,64V448a64,64,0,0,0,64,64H448a64,64,0,0,0,64-64ZM486.4,448A38.44,38.44,0,0,1,448,486.4H64A38.44,38.44,0,0,1,25.6,448V140.8H486.4ZM25.6,115.2V64A38.44,38.44,0,0,1,64,25.6H448A38.44,38.44,0,0,1,486.4,64v51.2Z"/><circle class="cls-4" cx="70.4" cy="70.4" r="19.2"/><circle class="cls-4" cx="121.6" cy="70.4" r="19.2"/><circle class="cls-4" cx="172.8" cy="70.4" r="19.2"/><path class="cls-4" d="M96,294.4h64a32,32,0,0,0,32-32V211.2a32,32,0,0,0-32-32H96a32,32,0,0,0-32,32v51.2A32,32,0,0,0,96,294.4Zm-6.4-83.2a6.41,6.41,0,0,1,6.4-6.4h64a6.41,6.41,0,0,1,6.4,6.4v51.2a6.41,6.41,0,0,1-6.4,6.4H96a6.41,6.41,0,0,1-6.4-6.4Z"/><path class="cls-4" d="M243.2,217.6h192a12.8,12.8,0,0,0,0-25.6h-192a12.8,12.8,0,0,0,0,25.6Z"/><path class="cls-4" d="M243.2,268.8h128a12.8,12.8,0,0,0,0-25.6h-128a12.8,12.8,0,0,0,0,25.6Z"/><path class="cls-4" d="M96,448h64a32,32,0,0,0,32-32V364.8a32,32,0,0,0-32-32H96a32,32,0,0,0-32,32V416A32,32,0,0,0,96,448Zm-6.4-83.2a6.41,6.41,0,0,1,6.4-6.4h64a6.41,6.41,0,0,1,6.4,6.4V416a6.41,6.41,0,0,1-6.4,6.4H96a6.41,6.41,0,0,1-6.4-6.4Z"/><path class="cls-4" d="M243.2,371.2h192a12.8,12.8,0,0,0,0-25.6h-192a12.8,12.8,0,0,0,0,25.6Z"/><path class="cls-4" d="M243.2,422.4h128a12.8,12.8,0,0,0,0-25.6h-128a12.8,12.8,0,0,0,0,25.6Z"/></svg>